<?xml version="1.0" standalone="no"?>
<!DOCTYPE svg PUBLIC "-//W3C//DTD SVG 20010904//EN"
 "http://www.w3.org/TR/2001/REC-SVG-20010904/DTD/svg10.dtd">
<svg version="1.0" xmlns="http://www.w3.org/2000/svg"
 width="700.000000pt" height="700.000000pt" viewBox="0 0 700.000000 700.000000"
 preserveAspectRatio="xMidYMid meet">
<metadata>
Created by potrace 1.14, written by Peter Selinger 2001-2017
</metadata>
<g transform="translate(0.000000,700.000000) scale(0.100000,-0.100000)"
fill="#000000" stroke="none">
<path d="M670 6920 c-290 -75 -529 -317 -639 -646 l-31 -92 0 -2690 0 -2690
29 -90 c112 -342 369 -593 671 -657 62 -13 410 -15 2791 -15 2978 0 2789 -4
2934 57 142 59 300 192 394 332 63 92 127 233 156 342 l25 96 -2 2649 -3 2649
-32 91 c-107 308 -301 533 -543 631 -139 56 32 53 -2935 52 -2677 0 -2742 -1
-2815 -19z m1060 -1040 l0 -530 -661 0 -660 0 3 333 c4 328 4 333 29 398 65
169 163 270 304 315 30 9 160 13 513 13 l472 1 0 -530z m4571 493 c127 -63
229 -205 264 -368 22 -105 22 -4925 0 -5030 -15 -71 -68 -190 -104 -235 -19
-24 -20 -24 -27 -5 -52 151 -186 409 -281 543 -287 403 -651 665 -1108 796
-238 68 -440 91 -740 83 -286 -7 -461 -35 -685 -109 -609 -200 -1078 -679
-1316 -1345 l-47 -133 -44 0 -43 0 0 2920 0 2920 2033 -2 2032 -3 66 -32z
m-4571 -2083 l0 -530 -660 0 -660 0 0 530 0 530 660 0 660 0 0 -530z m0 -1595
l0 -535 -660 0 -660 0 0 535 0 535 660 0 660 0 0 -535z m0 -1595 l0 -530 -464
0 c-423 0 -469 2 -523 18 -141 45 -243 151 -305 319 -21 54 -22 80 -26 391
l-3 332 660 0 661 0 0 -530z"/>
<path d="M3600 5805 l0 -435 55 0 55 0 0 377 c0 207 3 374 6 371 3 -4 54 -134
112 -290 l107 -283 60 0 59 0 106 282 c58 155 109 285 113 289 4 4 7 -162 7
-369 l0 -377 55 0 55 0 0 435 0 435 -88 0 -87 0 -109 -291 c-99 -263 -110
-289 -121 -268 -7 13 -56 144 -111 292 l-98 267 -88 0 -88 0 0 -435z"/>
<path d="M4685 5819 c-88 -232 -161 -428 -163 -435 -3 -11 11 -14 56 -14 l60
0 40 113 40 112 194 3 195 2 40 -112 40 -113 48 -3 c26 -2 53 -1 60 2 9 3 -35
130 -150 433 l-163 428 -68 3 -69 3 -160 -422z m309 89 c42 -114 76 -210 76
-213 0 -3 -70 -5 -155 -5 -99 0 -155 4 -155 10 0 6 32 97 70 203 39 105 73
198 75 206 3 8 7 12 9 10 2 -2 38 -97 80 -211z"/>
<path d="M4186 5304 c-356 -79 -655 -355 -807 -743 -179 -458 -127 -997 135
-1391 160 -240 380 -405 626 -472 123 -33 347 -33 470 0 795 215 1132 1353
627 2120 -155 235 -373 403 -617 473 -100 28 -333 36 -434 13z"/>
</g>
</svg>
